<?xml version="1.0" encoding="utf-8"?>
<!-- Generator: Adobe Illustrator 23.0.3, SVG Export Plug-In . SVG Version: 6.00 Build 0)  -->
<svg version="1.1" id="Layer_1" xmlns="http://www.w3.org/2000/svg" xmlns:xlink="http://www.w3.org/1999/xlink" x="0px" y="0px"
	 viewBox="0 0 369 376" style="enable-background:new 0 0 369 376;" xml:space="preserve">
<style type="text/css">
	.st0{fill-rule:evenodd;clip-rule:evenodd;fill:#FFFFFF;}
</style>
<title>Group</title>
<desc>Created with Sketch.</desc>
<g id="Clip-10">
</g>
<g>
	<path class="st0" d="M314.1,305.9c18.5-19.7,32.8-43.5,41.4-69.9c-18.8,1.3-38.9,3.3-60.2,5.9c-22.1,2.8-48.7,10.4-74.5,21
		c15.7,7,33.2,14.7,48.1,22.1C282.9,292,298.8,299.7,314.1,305.9z"/>
	<path class="st0" d="M178.5,364.5c51.1,0,97.3-20.6,131-53.9c-24.7-5.8-46.9-21.4-105.6-47.8c-25.8-10.6-51.1-18.3-73.4-18.3
		c-16.9,0-46.7,6-63.2,9.6c-2.3,0.5-30.7,6.9-52.9,11.9C45.7,324.7,107.4,364.5,178.5,364.5z"/>
</g>
<path class="st0" d="M260.6,80v-8.5V54h0c0-0.2,0-0.4,0-0.6c0-7.2-5.9-13.1-13.1-13.1c-7.2,0-13.1,5.9-13.1,13.1c0,0.2,0,0.4,0,0.6
	h0v17.4h-3.7V60.2h-12.5v11.2h-6.2V60.2h-12.5v11.2h-6.2V60.2h-12.5v11.2h-6.2V60.2h-12.5v11.2H156V60.2h-12.5v11.2h-6.2V60.2h-12.5
	v11.2h-5V54h0c0-0.2,0-0.4,0-0.6c0-7.2-5.9-13.1-13.1-13.1c-7.2,0-13.1,5.9-13.1,13.1c0,0.2,0,0.4,0,0.6h0v26l-7.5,2.7v1.2v54.8v1.2
	l10,17.9v83c12.4-2.1,25-3.8,34.3-3.8c25.4,0,54.1,9.3,82.8,21.6c16-6.8,31.9-12.7,47.3-16.7v-89.5l7.5-13.9V82.6L260.6,80z
	 M205.6,171.7c0-0.2,0-0.3,0-0.5c-0.3,15.4-12.9,27.9-28.4,27.9c-15.5,0-28.1-12.4-28.4-27.8c0,0.1,0,0.3,0,0.4v-1
	c0,0.2,0,0.4,0,0.6c0.3-27.2,29.9-46.9,29.9-46.9s26.6,19.7,26.9,46.9c0-0.2,0-0.4,0-0.5V171.7z"/>
</svg>
